<?xml version="1.0" encoding="UTF-8"?>
<svg width="16px" height="16px" viewBox="0 0 16 16" version="1.1" xmlns="http://www.w3.org/2000/svg" xmlns:xlink="http://www.w3.org/1999/xlink">
    <title>编辑 2</title>
    <g id="业务引擎" stroke="none" stroke-width="1" fill="none" fill-rule="evenodd">
        <g id="业务流程-目录收起" transform="translate(-749.000000, -122.000000)" fill="#0D5FE9" fill-rule="nonzero">
            <g id="编辑-2" transform="translate(749.000000, 122.000000)">
                <g id="编组" transform="translate(2.000000, 1.000000)">
                    <path d="M2.16002768,11.8793762 C1.75953582,11.8793762 1.38530573,11.741502 1.11612465,11.4854498 C0.774721759,11.1637432 0.610586016,10.6779007 0.669674978,10.1526654 C0.669674978,10.1526654 0.912596003,8.02546281 0.912596003,8.02546281 C0.958554085,7.62497095 1.20147603,7.09317029 1.48378733,6.80429092 C1.48378733,6.80429092 6.87401375,1.09891024 6.87401375,1.09891024 C8.2199093,-0.325790941 9.62491351,-0.365182926 11.049614,0.980732319 C12.4743146,2.32664756 12.5137072,3.73165177 11.167792,5.1563523 C11.167792,5.1563523 5.77758524,10.861733 5.77758524,10.861733 C5.50183675,11.1571778 4.98973241,11.4329263 4.58924056,11.4985807 C4.58924056,11.4985807 2.47516881,11.8596799 2.47516881,11.8596799 C2.36355632,11.8662453 2.26507472,11.8793762 2.16002768,11.8793762 C2.16002768,11.8793762 2.16002768,11.8793762 2.16002768,11.8793762 Z M8.98150037,0.974166879 C8.47596147,0.974166879 8.03607698,1.28930801 7.58962704,1.76201971 C7.58962704,1.76201971 2.19942032,7.47396583 2.19942032,7.47396583 C2.06811151,7.61184007 1.91710639,7.94011208 1.89084463,8.13050985 C1.89084463,8.13050985 1.64792334,10.2577125 1.64792334,10.2577125 C1.62166158,10.474372 1.6741851,10.6516389 1.79236302,10.7632514 C1.91054095,10.8748639 2.08780783,10.9142565 2.30446736,10.8814293 C2.30446736,10.8814293 4.41853911,10.5203301 4.41853911,10.5203301 C4.60893688,10.4875029 4.92407801,10.3168014 5.05538681,10.1789272 C5.05538681,10.1789272 10.4455935,4.47354652 10.4455935,4.47354652 C11.2597081,3.60690841 11.5551529,2.8059247 10.3668083,1.68979986 C9.84157304,1.18426097 9.38855766,0.974166879 8.98150037,0.974166879 C8.98150037,0.974166879 8.98150037,0.974166879 8.98150037,0.974166879 Z" id="形状"></path>
                    <path d="M9.90724793,6.25277955 C9.89411705,6.25277955 9.87442072,6.25277955 9.86128984,6.25277955 C7.8128725,6.04925091 6.16494831,4.49324157 5.84980696,2.45795642 C5.81041435,2.18877337 5.99424687,1.93928644 6.26342992,1.89332834 C6.53261165,1.85393572 6.78209838,2.03776824 6.82805646,2.30695129 C7.07754319,3.89578651 8.36436947,5.11695839 9.96633689,5.27452896 C10.2355199,5.30079072 10.4324831,5.54371201 10.4062214,5.81289506 C10.3733942,6.06238179 10.1567347,6.25277955 9.90724793,6.25277955 C9.90724793,6.25277955 9.90724793,6.25277955 9.90724793,6.25277955 Z" id="路径"></path>
                    <path d="M12.3102004,14 C12.3102004,14 0.492408016,14 0.492408016,14 C0.223224967,14 0,13.776775 0,13.507592 C0,13.2384089 0.223224967,13.015184 0.492408016,13.015184 C0.492408016,13.015184 12.3102004,13.015184 12.3102004,13.015184 C12.5793835,13.015184 12.8026084,13.2384089 12.8026084,13.507592 C12.8026084,13.776775 12.5793835,14 12.3102004,14 C12.3102004,14 12.3102004,14 12.3102004,14 Z" id="路径"></path>
                </g>
                <rect id="矩形" opacity="0" x="0" y="0" width="16" height="16"></rect>
            </g>
        </g>
    </g>
</svg>