<?xml version="1.0" encoding="UTF-8"?>
<svg width="14px" height="12px" viewBox="0 0 14 12" version="1.1" xmlns="http://www.w3.org/2000/svg" xmlns:xlink="http://www.w3.org/1999/xlink">
    <title>编组</title>
    <g id="0330" stroke="none" stroke-width="1" fill="none" fill-rule="evenodd">
        <g id="前言" transform="translate(-210.000000, -299.000000)" fill="#FFFFFF" fill-rule="nonzero">
            <g id="编组" transform="translate(210.000000, 299.000000)">
                <path d="M7,11.3953488 C3.1692093,11.3953488 0,7.62283721 0,5.69767442 C0,3.77234884 3.1692093,0 7,0 C10.8306279,0 14,3.77234884 14,5.69767442 C14,7.62283721 10.8306279,11.3953488 7,11.3953488 Z M7,0.976744186 C3.64765116,0.976744186 0.976744186,4.36686047 0.976744186,5.69767442 C0.976744186,7.02832558 3.64765116,10.4186047 7,10.4186047 C10.352186,10.4186047 13.0232558,7.02832558 13.0232558,5.69767442 C13.0232558,4.36686047 10.352186,0.976744186 7,0.976744186 Z" id="形状"></path>
                <path d="M7,8.13953488 C5.65355814,8.13953488 4.55813953,7.04411628 4.55813953,5.69767442 C4.55813953,4.35123256 5.65355814,3.25581395 7,3.25581395 C8.34644186,3.25581395 9.44186047,4.35123256 9.44186047,5.69767442 C9.44186047,7.04411628 8.34644186,8.13953488 7,8.13953488 Z M7,4.23255814 C6.19206977,4.23255814 5.53488372,4.88974419 5.53488372,5.69767442 C5.53488372,6.50560465 6.19206977,7.1627907 7,7.1627907 C7.80793023,7.1627907 8.46511628,6.50560465 8.46511628,5.69767442 C8.46511628,4.88974419 7.80793023,4.23255814 7,4.23255814 Z" id="形状"></path>
            </g>
        </g>
    </g>
</svg>