<svg xmlns="http://www.w3.org/2000/svg" viewBox="0 0 16 16" class="design-iconfont">
  <path d="M15.46875,1.96875 C15.7794082,1.96875 16.03125,2.2205918 16.03125,2.53125 L16.03125,15.46875 C16.03125,15.7794082 15.7794082,16.03125 15.46875,16.03125 L2.53125,16.03125 C2.2205918,16.03125 1.96875,15.7794082 1.96875,15.46875 L1.96875,2.53125 C1.96875,2.2205918 2.2205918,1.96875 2.53125,1.96875 L15.46875,1.96875 Z M14.90625,3.09375 L3.09375,3.09375 L3.09375,14.90625 L14.90625,14.90625 L14.90625,3.09375 Z M10.1136094,4.32 C10.5621855,4.32 10.9366172,4.52304492 11.1943828,4.90826953 C11.3784431,5.19304671 11.4897052,5.51869007 11.5183828,5.85655664 C11.5264687,5.95805273 11.5434316,6.15870703 11.5693418,6.45848437 L11.5705195,6.47219531 L10.4152852,6.47219531 C10.3923281,6.25060547 10.3760156,6.07587891 10.3663301,5.94801562 C10.3548164,5.83062891 10.2842402,5.49293555 10.1128887,5.49293555 C10.0423125,5.49293555 9.91487109,5.60023242 9.77301562,5.90192578 C9.64494141,6.17222461 9.55233984,6.49260352 9.49586133,6.68879297 L9.49292578,6.69898828 L9.4605293,6.80916797 C9.44699414,6.85692773 9.41298047,6.985125 9.32848242,7.31946094 L9.32686523,7.32585937 L10.805625,7.32585937 C10.805625,7.94717578 10.3019414,8.45085937 9.680625,8.45085937 L9.05213672,8.45085937 L9.03930469,8.50341797 C8.73958008,9.73726172 8.43985547,10.9868027 8.14598437,12.2209805 L8.08310742,12.4852148 L8.08166602,12.4916836 L8.08022461,12.4952871 C7.95332812,12.9308379 7.52018555,13.6655859 6.69759961,13.6802285 L6.67255078,13.6804746 L6.67183008,13.6804746 C5.71489453,13.6804746 5.21015625,12.8056113 5.06255273,12.287918 C5.02957617,12.1721836 4.99074609,11.931873 4.9460625,11.5669687 L4.94439258,11.5532402 L6.09874805,11.5532402 C6.12001758,11.7277383 6.14448633,11.8631953 6.17211914,11.9595762 C6.17356055,11.9646211 6.35211914,12.5082422 6.67255078,12.5082422 C6.81194531,12.5082422 6.92602734,12.2919258 6.96905859,12.1714277 L6.97064062,12.1669453 L7.01599219,11.9782969 C7.11210937,11.5747559 7.3556543,10.5520605 7.60876172,9.49913086 L7.62458203,9.4332832 L7.6404375,9.36740039 L7.66051172,9.28397461 L7.68058594,9.20060156 C7.73270508,8.98416211 7.78468359,8.76877734 7.83530859,8.55958008 L7.84908984,8.50269727 L7.86174609,8.45085937 L6.39351563,8.45085937 C6.39351563,7.82954297 6.89719922,7.32585937 7.51851563,7.32585937 L8.13663281,7.32585937 C8.24941406,6.87118359 8.32222266,6.58494141 8.35432031,6.47544727 L8.35526953,6.47219531 L8.38550391,6.36922266 C8.4784043,6.04736719 8.61880078,5.5599082 8.87083594,5.13796289 C9.19555664,4.5950625 9.61316016,4.32 10.1136094,4.32 L10.1136094,4.32 Z M13.2568945,9.07832813 L13.2722227,9.088875 L12.2882344,10.4941406 L13.2722227,11.8994238 L13.2568945,11.9099707 C12.7543359,12.2498437 12.0720234,12.1294863 11.716084,11.6381426 L11.7053965,11.6231484 L11.6015625,11.4748242 L11.4977285,11.6231484 C11.144918,12.1270078 10.4538516,12.2532891 9.94623047,11.9099707 L9.93090234,11.8994238 L10.914873,10.4941406 L9.93090234,9.088875 L9.94623047,9.07832813 C10.4487891,8.73845508 11.1311016,8.8588125 11.487041,9.35015625 L11.4977285,9.36515039 L11.6015625,9.51345703 L11.7053965,9.36515039 C12.058207,8.86129102 12.7492734,8.73500977 13.2568945,9.07832813 L13.2568945,9.07832813 Z" transform="translate(-1 -1)" fill="#927CD6" fill-rule="nonzero"/>
</svg>
