<?xml version="1.0" encoding="UTF-8"?>
<svg width="15px" height="18px" viewBox="0 0 15 18" version="1.1" xmlns="http://www.w3.org/2000/svg" xmlns:xlink="http://www.w3.org/1999/xlink">
    <title>编组备份 7</title>
    <g id="0330" stroke="none" stroke-width="1" fill="none" fill-rule="evenodd">
        <g id="图标" transform="translate(-162.000000, -25.000000)" fill-rule="nonzero">
            <g id="编组备份-7" transform="translate(162.000000, 25.000000)">
                <path d="M2.45454545,0 L12.2727273,0 C13.6283353,0 14.7272727,1.09893743 14.7272727,2.45454545 L14.7272727,15.9545455 C14.7272727,17.0842188 13.8114915,18 12.6818182,18 L2.04545455,18 C0.915781194,18 0,17.0842188 0,15.9545455 L0,2.45454545 C0,1.09893743 1.09893743,0 2.45454545,0 Z" id="路径" fill="#FFFFFF"></path>
                <path d="M10.1818182,3.95454545 C10.4579606,3.95454545 10.6818182,4.22927981 10.6818182,4.56818182 C10.6818182,4.90708382 10.4579606,5.18181818 10.1818182,5.18181818 L4.70894753,5.18181818 C4.43280515,5.18181818 4.20894753,4.90708382 4.20894753,4.56818182 C4.20894753,4.22927981 4.43280515,3.95454545 4.70894753,3.95454545 L10.1818182,3.95454545 Z" id="形状" fill="#4786EF"></path>
                <path d="M9.16179818,6.95454545 C9.43794055,6.95454545 9.66179818,7.22927981 9.66179818,7.56818182 C9.66179818,7.90708382 9.43794055,8.18181818 9.16179818,8.18181818 L5.70894753,8.18181818 C5.43280515,8.18181818 5.20894753,7.90708382 5.20894753,7.56818182 C5.20894753,7.22927981 5.43280515,6.95454545 5.70894753,6.95454545 L9.16179818,6.95454545 Z M8.222436,9.95454545 C8.49857838,9.95454545 8.722436,10.2292798 8.722436,10.5681818 C8.722436,10.9070838 8.49857838,11.1818182 8.222436,11.1818182 L6.20894753,11.1818182 C5.93280515,11.1818182 5.70894753,10.9070838 5.70894753,10.5681818 C5.70894753,10.2292798 5.93280515,9.95454545 6.20894753,9.95454545 L8.222436,9.95454545 Z" id="形状备份" fill="#4786EF"></path>
            </g>
        </g>
    </g>
</svg>