<?xml version="1.0" encoding="UTF-8"?>
<svg width="16px" height="16px" viewBox="0 0 16 16" version="1.1" xmlns="http://www.w3.org/2000/svg" xmlns:xlink="http://www.w3.org/1999/xlink">
    <title>关闭</title>
    <g id="首页" stroke="none" stroke-width="1" fill="none" fill-rule="evenodd">
        <g id="弹窗放大" transform="translate(-1400.000000, -17.000000)">
            <g id="icon/16/关闭" transform="translate(1400.000000, 17.000000)">
                <rect id="矩形" fill="#D8D8D8" opacity="0" x="0" y="0" width="16" height="16"></rect>
                <path d="M12.5917911,2.43121616 C12.8653369,2.23439192 13.2489444,2.25899495 13.4949747,2.50502525 C13.7683418,2.77839226 13.7683418,3.22160774 13.4949747,3.49497475 L13.4949747,3.49497475 L8.989,8 L13.4949747,12.5050253 C13.7683418,12.7783923 13.7683418,13.2216077 13.4949747,13.4949747 C13.2489444,13.7410051 12.8653369,13.7656081 12.5917911,13.5687838 L12.5050253,13.4949747 L8,8.989 L3.49497475,13.4949747 L3.40820889,13.5687838 C3.13466313,13.7656081 2.75105556,13.7410051 2.50502525,13.4949747 C2.23165825,13.2216077 2.23165825,12.7783923 2.50502525,12.5050253 L2.50502525,12.5050253 L7.011,8 L2.50502525,3.49497475 C2.23165825,3.22160774 2.23165825,2.77839226 2.50502525,2.50502525 C2.75105556,2.25899495 3.13466313,2.23439192 3.40820889,2.43121616 L3.49497475,2.50502525 L8,7.011 L12.5050253,2.50502525 Z" id="形状结合" fill="#242F57" fill-rule="nonzero"></path>
            </g>
        </g>
    </g>
</svg>