<?xml version="1.0" encoding="UTF-8"?>
<svg width="18px" height="18px" viewBox="0 0 18 18" version="1.1" xmlns="http://www.w3.org/2000/svg" xmlns:xlink="http://www.w3.org/1999/xlink">
    <title>编组备份 3</title>
    <g id="页面-1" stroke="none" stroke-width="1" fill="none" fill-rule="evenodd">
        <g id="组件化制标/组件样式" transform="translate(-189.000000, -915.000000)" fill-rule="nonzero">
            <g id="编组-64" transform="translate(68.000000, 201.933164)">
                <g id="编组-63" transform="translate(16.000000, 698.566836)">
                    <g id="编组备份-3" transform="translate(105.000000, 14.500000)">
                        <path d="M15.888391,0 L2.11160897,0 C0.945399538,0 0,0.945399538 0,2.11160897 L0,15.888391 C0,17.0546005 0.945399538,18 2.11160897,18 L15.888391,18 C17.0546005,18 18,17.0546005 18,15.888391 L18,2.11160897 C18,0.945399538 17.0546005,0 15.888391,0 Z" id="形状" fill="#927CD6"></path>
                        <g id="编组" transform="translate(4.500000, 4.000000)" fill="#FFFFFF">
                            <path d="M5.5223875,0 C6.00161125,0 6.40162477,0.216917336 6.67700143,0.628461222 C6.87363705,0.932694917 6.99250083,1.28058685 7.02313772,1.64153711 C7.03177611,1.74996761 7.04989794,1.96433099 7.07757832,2.28458969 L7.07883652,2.29923738 L5.84467434,2.29923738 C5.82014884,2.0625081 5.80272184,1.87584389 5.79237456,1.73924474 C5.78007425,1.61383794 5.70467618,1.25307273 5.52161756,1.25307273 C5.44621949,1.25307273 5.31007104,1.36770033 5.15852374,1.69000595 C5.02169925,1.97877211 4.92277097,2.32103991 4.86243373,2.5306334 L4.85929762,2.54152528 L4.82468775,2.65923265 C4.81022785,2.71025545 4.7738903,2.8472114 4.68361918,3.2043898 L4.68189151,3.21122539 L6.26168295,3.21122539 C6.26168295,3.87499131 5.72358673,4.41308753 5.05982081,4.41308753 L4.38839302,4.41308753 L4.37468428,4.46923702 C4.05448191,5.78737932 3.73427955,7.12229135 3.42033062,8.44079045 L3.3531578,8.72307782 L3.35161791,8.72998853 L3.35007803,8.73383824 C3.21451173,9.19914668 2.75177603,9.98409411 1.87298946,9.99973709 L1.84622925,10 L1.84545931,10 C0.823144109,10 0.28392115,9.0653644 0.126233082,8.51230125 C0.0910034985,8.38865968 0.0495204758,8.13193066 0.00178401411,7.74209541 L0,7.72742894 L1.23322323,7.72742894 C1.25594593,7.91384902 1.28208643,8.05856073 1.31160717,8.16152652 C1.31314706,8.16691612 1.50390511,8.74767843 1.84622925,8.74767843 C1.99514748,8.74767843 2.11702381,8.51658288 2.16299504,8.38785218 L2.16468516,8.38306351 L2.21313523,8.18152625 C2.31581932,7.75041455 2.5760037,6.65784675 2.8464039,5.53297891 L2.86330508,5.46263242 L2.88024383,5.39224836 L2.90168956,5.30312278 L2.92313528,5.21405352 C2.9788153,4.98282652 3.03434509,4.75272626 3.08842888,4.52923624 L3.1031517,4.46846708 L3.11667264,4.41308753 L1.54812988,4.41308753 C1.54812988,3.74932161 2.0862261,3.21122539 2.74999202,3.21122539 L3.41034015,3.21122539 C3.53082682,2.7254853 3.60860984,2.4196865 3.64290047,2.30271151 L3.64391454,2.29923738 L3.67621458,2.18922944 C3.77546211,1.84538419 3.92545075,1.32462108 4.19470542,0.873847668 C4.54161166,0.293855292 4.98774664,0 5.5223875,0 L5.5223875,0 Z M8.88042786,5.08342613 L8.89680323,5.09469359 L7.84558701,6.59596963 L8.89680323,8.09726445 L8.88042786,8.10853191 C8.34353351,8.47162573 7.61460413,8.34304526 7.23434622,7.81813197 L7.22292852,7.8021134 L7.11200041,7.64365539 L7.00107229,7.8021134 C6.62415705,8.3403974 5.88587568,8.47530643 5.34357295,8.10853191 L5.32719758,8.09726445 L6.37839503,6.59596963 L5.32719758,5.09469359 L5.34357295,5.08342613 C5.8804673,4.72033231 6.60939668,4.84891278 6.9896546,5.37382607 L7.00107229,5.38984464 L7.11200041,5.54828387 L7.22292852,5.38984464 C7.59984376,4.85156064 8.33812513,4.71665161 8.88042786,5.08342613 L8.88042786,5.08342613 Z" id="形状"></path>
                        </g>
                    </g>
                </g>
            </g>
        </g>
    </g>
</svg>